<?xml version="1.0" encoding="utf-8"?>
<!-- Generator: Adobe Illustrator 15.0.0, SVG Export Plug-In . SVG Version: 6.00 Build 0)  -->
<!DOCTYPE svg PUBLIC "-//W3C//DTD SVG 1.1 Tiny//EN" "http://www.w3.org/Graphics/SVG/1.1/DTD/svg11-tiny.dtd">
<svg version="1.1" baseProfile="tiny" id="Layer_2" xmlns="http://www.w3.org/2000/svg" xmlns:xlink="http://www.w3.org/1999/xlink"
	 x="0px" y="0px" width="128px" height="128px" viewBox="0 0 128 128" xml:space="preserve">
<g>
	<path id="path2400_3_" fill="#7CC040" stroke="#FFFFFF" stroke-width="3.7498" stroke-miterlimit="10" d="M13.03,107.453
		l-3.525-3.244l0.006-41.112c0.006-40.586,0.021-41.148,1.025-43.84c2.152-5.756,5.391-7.714,13.54-8.188
		c4.886-0.288,6.399-0.083,36.886,4.943l31.79,5.244V55.21c0,26.159-0.143,34.422-0.622,35.995c-0.76,2.51-3.268,5.875-5.21,7.008
		c-0.967,0.561-12.65,2.719-34.939,6.457c-18.417,3.086-33.925,5.709-34.457,5.82C16.842,110.631,15.507,109.729,13.03,107.453z"/>
	<path id="path2398_3_" fill="#3FA9F5" stroke="#FFFFFF" stroke-width="1.8749" stroke-miterlimit="10" d="M12.281,106.504
		l-2.776-2.807V62.273c0-30.032,0.157-41.942,0.564-43.305c0.718-2.398,3.385-5.521,5.742-6.722c1.007-0.515,3.33-1.059,5.163-1.208
		c2.466-0.2,3.043-0.146,2.218,0.217c-2.4,1.055-4.501,3.147-5.788,5.769c0,0-1.343,2.608-1.346,3.713
		c-0.003,1.105-0.137,43.8-0.137,43.8c-0.074,24.625-0.297,44.771-0.499,44.771C15.221,109.307,13.809,108.047,12.281,106.504z"/>
</g>
<g>
	<g>
		<path id="path2400_2_" fill="#7CC040" stroke="#FFFFFF" stroke-width="4.2116" stroke-miterlimit="10" d="M31.6,118.514
			l-3.958-3.641l0.005-46.176c0.008-45.584,0.023-46.216,1.153-49.24c2.417-6.465,6.054-8.663,15.207-9.197
			c5.489-0.321,7.187-0.092,41.427,5.554l35.706,5.888V59.84c0,29.38-0.161,38.66-0.699,40.427
			c-0.854,2.819-3.668,6.601-5.852,7.871c-1.085,0.628-14.207,3.053-39.241,7.251c-20.685,3.468-38.103,6.412-38.7,6.537
			C35.882,122.084,34.381,121.07,31.6,118.514z"/>
		<path id="path2398_2_" fill="#3FA9F5" stroke="#FFFFFF" stroke-width="2.1058" stroke-miterlimit="10" d="M30.759,117.45
			l-3.117-3.153V67.771c0-33.731,0.175-47.106,0.633-48.638c0.806-2.694,3.801-6.201,6.448-7.55c1.131-0.577,3.742-1.189,5.8-1.357
			c2.769-0.226,3.418-0.164,2.492,0.243c-2.696,1.184-5.056,3.536-6.502,6.48c0,0-1.507,2.93-1.511,4.171
			c-0.003,1.242-0.153,49.196-0.153,49.196c-0.083,27.656-0.335,50.284-0.562,50.284C34.061,120.599,32.474,119.182,30.759,117.45z"
			/>
	</g>
	<g>
		<g>
			<path fill-rule="evenodd" fill="#FFFFFF" d="M110.754,28.342L48.45,20.178l-4.896-0.656v6.082l-0.144,78.682v6.098l4.901-0.806
				l62.347-10.08l3.023-0.479l0.008-4.73l0.079-60.836v-4.716L110.754,28.342z M107.58,90.342l-54.491,6.649l0.105-64.429
				l54.455,5.02L107.58,90.342z"/>
		</g>
		<path fill-rule="evenodd" fill="#FFFFFF" d="M94.404,71.998c-0.452-9.971-6.717-16.51-13.454-18.109
			c2.728-4.39,7.943-7.736,12.218-9.526c-4.001,0.416-8.698,0.297-13.073,3.246c0.112-0.186,0.172-0.374,0.281-0.561
			c-0.223,0.229-0.377,0.546-0.584,0.8c-0.595,0.418-1.195,0.838-1.762,1.417c-0.698-5.142-2.306-9.577-4.328-12.999
			c1.237,5.666,1.157,10.764,0.09,15.679c-5.152-3.749-11.441-2.481-14.36,2.071c3.871-2.337,8.251-0.897,10.933,2.492
			c-2.55,1.284-4.726,3.133-6.395,5.324c2.958-0.788,5.601-0.394,8.111,0.608c-4.173,12.465-4.738,26.914-4.19,39.465l8.495-2.269
			c-2.245-11.299-4.006-24.386-1.546-37.166c0.205-0.173,0.466-0.272,0.679-0.408c3.486,1.634,6.987,5.488,8.551,12.684
			c-0.026-5.427-1.209-10.46-3.614-14.748C86.069,59.079,92.134,62.294,94.404,71.998z"/>
		<path fill-rule="evenodd" fill="#FFFFFF" d="M97.832,80.793c-0.307-7.108-4.704-11.555-9.333-12.436
			c1.854-3.213,5.461-5.798,8.45-7.27c-2.78,0.472-6.041,0.625-9.051,2.879c0.064-0.128,0.113-0.281,0.203-0.42
			c-0.161,0.176-0.276,0.4-0.414,0.6c-0.399,0.31-0.809,0.677-1.202,1.084c-0.492-3.592-1.558-6.589-2.927-8.939
			c0.828,3.937,0.776,7.479,0.067,10.946c-3.464-2.363-7.636-1.248-9.546,1.997c2.546-1.746,5.444-0.896,7.229,1.353
			c-1.699,0.956-3.157,2.32-4.242,3.896c1.964-0.622,3.714-0.453,5.405,0.155c-2.783,8.809-3.173,18.837-2.811,27.554l5.695-1.616
			c-1.513-7.877-2.69-17.011-1.022-25.996c0.135-0.101,0.302-0.181,0.452-0.283c2.363,1.023,4.759,3.649,5.852,8.685
			c-0.031-3.835-0.854-7.336-2.496-10.296C92,71.817,96.242,73.923,97.832,80.793z"/>
	</g>
</g>
</svg>
