<?xml version="1.0" encoding="utf-8"?>
<!-- Generator: Adobe Illustrator 15.0.2, SVG Export Plug-In . SVG Version: 6.00 Build 0)  -->
<!DOCTYPE svg PUBLIC "-//W3C//DTD SVG 1.1//EN" "http://www.w3.org/Graphics/SVG/1.1/DTD/svg11.dtd">
<svg version="1.1" id="Layer_1" xmlns="http://www.w3.org/2000/svg" xmlns:xlink="http://www.w3.org/1999/xlink" x="0px" y="0px"
	 width="80.023px" height="81px" viewBox="8 8 80.023 81" enable-background="new 8 8 80.023 81" xml:space="preserve">
<g>
	<rect fill="none" width="96" height="96"/>
</g>
<g>
	<path fill-opacity="0.4" d="M88.023,49c0,29.633-10.364,40-40,40c-29.635,0-40-10.367-40-40c0-29.634,10.366-40,40-40
		C77.659,9,88.023,19.365,88.023,49z"/>
</g>
<g>
	<g>
		
			<linearGradient id="SVGID_1_" gradientUnits="userSpaceOnUse" x1="62.0352" y1="-49.4746" x2="62.0352" y2="-129.4546" gradientTransform="matrix(1 0 0 -1 -14.0352 -41.4648)">
			<stop  offset="0" style="stop-color:#DDDDDD"/>
			<stop  offset="0.0364" style="stop-color:#DDDDDD"/>
			<stop  offset="0.4616" style="stop-color:#BFBFC1"/>
			<stop  offset="1" style="stop-color:#949499"/>
		</linearGradient>
		<path fill="url(#SVGID_1_)" d="M8,47.989c0,29.633,10.365,40,40,40c29.637,0,40-10.367,40-40c0-28.985-9.926-39.53-38.091-39.979
			h-3.817C17.928,8.459,8,19.004,8,47.989z"/>
		
			<linearGradient id="SVGID_2_" gradientUnits="userSpaceOnUse" x1="62.0352" y1="-49.4648" x2="62.0352" y2="-129.4653" gradientTransform="matrix(1 0 0 -1 -14.0352 -41.4648)">
			<stop  offset="0" style="stop-color:#FFFFFF"/>
			<stop  offset="0.0364" style="stop-color:#FFFFFF"/>
			<stop  offset="0.3366" style="stop-color:#E1E1E3"/>
			<stop  offset="0.9874" style="stop-color:#96969A"/>
			<stop  offset="1" style="stop-color:#949499"/>
		</linearGradient>
		<path fill="url(#SVGID_2_)" fill-opacity="0.25" d="M48,8C18.365,8,8,18.365,8,48c0,29.633,10.365,40,40,40
			c29.637,0,40-10.367,40-40C88,18.365,77.637,8,48,8z M48,87.023C18.842,87.023,9,77.176,9,48S18.842,8.977,48,8.977
			S87,18.824,87,48S77.158,87.023,48,87.023z"/>
	</g>
	<g display="none">
		
			<linearGradient id="SVGID_3_" gradientUnits="userSpaceOnUse" x1="62.0352" y1="-49.4746" x2="62.0352" y2="-129.4546" gradientTransform="matrix(1 0 0 -1 -14.0352 -41.4648)">
			<stop  offset="0" style="stop-color:#E0E0E0"/>
			<stop  offset="0.0364" style="stop-color:#E0E0E0"/>
			<stop  offset="0.3262" style="stop-color:#D6D6D6"/>
			<stop  offset="0.8148" style="stop-color:#BCBCBC"/>
			<stop  offset="1" style="stop-color:#B0B0B0"/>
		</linearGradient>
		<path display="inline" fill="url(#SVGID_3_)" d="M8,47.989c0,29.633,10.365,40,40,40c29.637,0,40-10.367,40-40
			c0-28.985-9.926-39.53-38.091-39.979h-3.817C17.928,8.459,8,19.004,8,47.989z"/>
		
			<linearGradient id="SVGID_4_" gradientUnits="userSpaceOnUse" x1="62.0352" y1="-49.4648" x2="62.0352" y2="-129.4653" gradientTransform="matrix(1 0 0 -1 -14.0352 -41.4648)">
			<stop  offset="0" style="stop-color:#E8E8E8"/>
			<stop  offset="0.0364" style="stop-color:#E8E8E8"/>
			<stop  offset="0.2978" style="stop-color:#DEDEDE"/>
			<stop  offset="0.7385" style="stop-color:#C4C4C4"/>
			<stop  offset="1" style="stop-color:#B1B1B1"/>
		</linearGradient>
		<path display="inline" fill="url(#SVGID_4_)" d="M48,8C18.365,8,8,18.365,8,48c0,29.633,10.365,40,40,40c29.637,0,40-10.367,40-40
			C88,18.365,77.637,8,48,8z M48,87.023C18.842,87.023,9,77.176,9,48S18.842,8.977,48,8.977S87,18.824,87,48
			S77.158,87.023,48,87.023z"/>
	</g>
	<g display="none">
		
			<linearGradient id="SVGID_5_" gradientUnits="userSpaceOnUse" x1="62.0352" y1="-49.4746" x2="62.0352" y2="-129.4546" gradientTransform="matrix(1 0 0 -1 -14.0352 -41.4648)">
			<stop  offset="0" style="stop-color:#E9E9E9"/>
			<stop  offset="0.0364" style="stop-color:#E9E9E9"/>
			<stop  offset="0.3218" style="stop-color:#DFDFDF"/>
			<stop  offset="0.8028" style="stop-color:#C5C5C5"/>
			<stop  offset="1" style="stop-color:#B8B8B8"/>
		</linearGradient>
		<path display="inline" fill="url(#SVGID_5_)" d="M8,47.989c0,29.633,10.365,40,40,40c29.637,0,40-10.367,40-40
			c0-28.985-9.926-39.53-38.091-39.979h-3.817C17.928,8.459,8,19.004,8,47.989z"/>
		
			<linearGradient id="SVGID_6_" gradientUnits="userSpaceOnUse" x1="62.0352" y1="-49.4648" x2="62.0352" y2="-129.4653" gradientTransform="matrix(1 0 0 -1 -14.0352 -41.4648)">
			<stop  offset="0" style="stop-color:#EFEFEF"/>
			<stop  offset="0.0364" style="stop-color:#EFEFEF"/>
			<stop  offset="0.3133" style="stop-color:#E5E5E5"/>
			<stop  offset="0.7799" style="stop-color:#CBCBCB"/>
			<stop  offset="1" style="stop-color:#BCBCBC"/>
		</linearGradient>
		<path display="inline" fill="url(#SVGID_6_)" d="M48,8C18.365,8,8,18.365,8,48c0,29.633,10.365,40,40,40c29.637,0,40-10.367,40-40
			C88,18.365,77.637,8,48,8z M48,87.023C18.842,87.023,9,77.176,9,48S18.842,8.977,48,8.977S87,18.824,87,48
			S77.158,87.023,48,87.023z"/>
	</g>
	<g display="none">
		
			<linearGradient id="SVGID_7_" gradientUnits="userSpaceOnUse" x1="62.0352" y1="-49.4746" x2="62.0352" y2="-129.4546" gradientTransform="matrix(1 0 0 -1 -14.0352 -41.4648)">
			<stop  offset="0" style="stop-color:#EEEEEE"/>
			<stop  offset="0.0364" style="stop-color:#EEEEEE"/>
			<stop  offset="0.3262" style="stop-color:#E4E4E4"/>
			<stop  offset="0.8148" style="stop-color:#CACACA"/>
			<stop  offset="1" style="stop-color:#BEBEBE"/>
		</linearGradient>
		<path display="inline" fill="url(#SVGID_7_)" d="M8,47.989c0,29.633,10.365,40,40,40c29.637,0,40-10.367,40-40
			c0-28.985-9.926-39.53-38.091-39.979h-3.817C17.928,8.459,8,19.004,8,47.989z"/>
		
			<linearGradient id="SVGID_8_" gradientUnits="userSpaceOnUse" x1="62.0352" y1="-49.4648" x2="62.0352" y2="-129.4653" gradientTransform="matrix(1 0 0 -1 -14.0352 -41.4648)">
			<stop  offset="0" style="stop-color:#F2F2F2"/>
			<stop  offset="0.0364" style="stop-color:#F2F2F2"/>
			<stop  offset="0.3133" style="stop-color:#E8E8E8"/>
			<stop  offset="0.7799" style="stop-color:#CECECE"/>
			<stop  offset="1" style="stop-color:#BFBFBF"/>
		</linearGradient>
		<path display="inline" fill="url(#SVGID_8_)" d="M48,8C18.365,8,8,18.365,8,48c0,29.633,10.365,40,40,40c29.637,0,40-10.367,40-40
			C88,18.365,77.637,8,48,8z M48,87.023C18.842,87.023,9,77.176,9,48S18.842,8.977,48,8.977S87,18.824,87,48
			S77.158,87.023,48,87.023z"/>
	</g>
	<g display="none">
		
			<linearGradient id="SVGID_9_" gradientUnits="userSpaceOnUse" x1="62.0352" y1="-49.4746" x2="62.0352" y2="-129.4546" gradientTransform="matrix(1 0 0 -1 -14.0352 -41.4648)">
			<stop  offset="0" style="stop-color:#F9F9F9"/>
			<stop  offset="0.0364" style="stop-color:#F9F9F9"/>
			<stop  offset="0.2102" style="stop-color:#EFEFEF"/>
			<stop  offset="0.5042" style="stop-color:#D6D6D5"/>
			<stop  offset="0.8303" style="stop-color:#B2B2B0"/>
			<stop  offset="1" style="stop-color:#ABABA8"/>
		</linearGradient>
		<path display="inline" fill="url(#SVGID_9_)" d="M8,47.989c0,29.633,10.365,40,40,40c29.637,0,40-10.367,40-40
			c0-28.985-9.926-39.53-38.091-39.979h-3.817C17.928,8.459,8,19.004,8,47.989z"/>
		
			<linearGradient id="SVGID_10_" gradientUnits="userSpaceOnUse" x1="62.0352" y1="-49.4648" x2="62.0352" y2="-129.4653" gradientTransform="matrix(1 0 0 -1 -14.0352 -41.4648)">
			<stop  offset="0" style="stop-color:#FCFCFC"/>
			<stop  offset="0.0364" style="stop-color:#FCFCFC"/>
			<stop  offset="0.2262" style="stop-color:#F3F3F2"/>
			<stop  offset="0.5471" style="stop-color:#DAD9D8"/>
			<stop  offset="0.9576" style="stop-color:#B2B0AD"/>
			<stop  offset="1" style="stop-color:#ADABA8"/>
		</linearGradient>
		<path display="inline" fill="url(#SVGID_10_)" d="M48,8C18.365,8,8,18.365,8,48c0,29.633,10.365,40,40,40
			c29.637,0,40-10.367,40-40C88,18.365,77.637,8,48,8z M48,87.023C18.842,87.023,9,77.176,9,48S18.842,8.977,48,8.977
			S87,18.824,87,48S77.158,87.023,48,87.023z"/>
	</g>
</g>
<g>
	
		<linearGradient id="SVGID_11_" gradientUnits="userSpaceOnUse" x1="62.0352" y1="-51.2266" x2="62.0352" y2="-131.2065" gradientTransform="matrix(1 0 0 -1 -14.0352 -41.4648)">
		<stop  offset="0" style="stop-color:#7CC040"/>
		<stop  offset="0.0364" style="stop-color:#7CC040"/>
		<stop  offset="0.2088" style="stop-color:#77B83D"/>
		<stop  offset="0.4751" style="stop-color:#69A236"/>
		<stop  offset="0.8004" style="stop-color:#527F2B"/>
		<stop  offset="1" style="stop-color:#426623"/>
	</linearGradient>
	<path fill="url(#SVGID_11_)" d="M8,47.989c0,29.633,10.365,40,40,40c29.637,0,40-10.367,40-40c0-28.985-9.926-39.53-38.091-39.979
		h-3.817C17.928,8.459,8,19.004,8,47.989z"/>
	
		<linearGradient id="SVGID_12_" gradientUnits="userSpaceOnUse" x1="62.0352" y1="-49.7207" x2="62.0352" y2="-128.9701" gradientTransform="matrix(1 0 0 -1 -14.0352 -41.4648)">
		<stop  offset="0" style="stop-color:#FFFFFF"/>
		<stop  offset="0.0364" style="stop-color:#FFFFFF"/>
		<stop  offset="1" style="stop-color:#4A1F8C"/>
	</linearGradient>
	<path fill="url(#SVGID_12_)" fill-opacity="0.25" d="M48,8C18.365,8,8,18.365,8,48c0,29.632,10.365,40,40,40
		c29.637,0,40-10.367,40-40C88,18.365,77.637,8,48,8z M48,87.023C18.842,87.023,9,77.176,9,48S18.842,8.977,48,8.977
		S87,18.824,87,48S77.158,87.023,48,87.023z"/>
	<path fill-opacity="0.05" d="M48.917,87.979c28.808-0.215,38.997-10.59,39.079-39.641C86.352,69.225,69.744,86.039,48.917,87.979z"
		/>
	<path fill-opacity="0.07" d="M53.814,87.835c23.416-1.267,32.84-10.767,34.047-34.28C84.415,70.686,70.918,84.271,53.814,87.835z"
		/>
	<path fill-opacity="0.1" d="M57.172,87.584c19.85-1.884,28.592-10.675,30.438-30.581C83.436,71.7,71.852,83.34,57.172,87.584z"/>
	
		<linearGradient id="SVGID_13_" gradientUnits="userSpaceOnUse" x1="82.1426" y1="-90.0767" x2="82.1426" y2="-130.3345" gradientTransform="matrix(1 0 0 -1 -14.0352 -41.4648)">
		<stop  offset="0" style="stop-color:#3FA9F5"/>
		<stop  offset="0.0364" style="stop-color:#3FA9F5"/>
		<stop  offset="0.2062" style="stop-color:#3DA4ED"/>
		<stop  offset="0.4684" style="stop-color:#3898D7"/>
		<stop  offset="0.7886" style="stop-color:#3084B4"/>
		<stop  offset="1" style="stop-color:#297499"/>
	</linearGradient>
	<path fill="url(#SVGID_13_)" d="M87.997,47.729h-0.044c0.001,0.091,0.007,0.18,0.007,0.271c0,21.996-17.776,39.838-39.745,39.954
		v0.032C77.684,87.936,88,77.549,88,47.989C88,47.901,87.997,47.817,87.997,47.729z"/>
</g>
<g>
	<path fill-opacity="0.05" d="M71.676,37.888l-0.898-0.118l0.007-7.004c0-1.176-0.837-2.203-1.987-2.442l-37.432-7.736l-2.99-0.627
		c-0.171-0.037-0.347-0.056-0.521-0.056c-0.568,0-1.126,0.198-1.575,0.56c-0.583,0.475-0.917,1.18-0.917,1.933v3.498l-0.089,45.322
		v3.515c0,0.723,0.316,1.41,0.871,1.894c0.451,0.388,1.027,0.599,1.622,0.599c0.063,0,0.316-0.019,0.38-0.029l2.998-0.463
		l7.524-1.135c0.049,0.662,0.361,1.279,0.874,1.715c0.449,0.381,1.022,0.59,1.612,0.59c0.074,0,0.363-0.025,0.405-0.032l2.094-0.349
		l28.063-4.53c1.212-0.196,2.095-1.229,2.095-2.456L73.85,40.36C73.848,39.109,72.912,38.047,71.676,37.888z M49.979,57.061
		c0.086,0,0.176-0.004,0.269-0.017c-0.668,2.863-1.038,6.031-1.127,9.642l-1.317,0.16l0.019-11.027
		c0.026,0.049,0.055,0.096,0.085,0.141C48.369,56.646,49.145,57.061,49.979,57.061z M52.05,46.914
		c-0.211-0.019-0.423-0.029-0.635-0.029c-1.289,0-2.528,0.372-3.583,1.06l0.005-3.21L51.9,45.11
		C51.993,45.724,52.043,46.32,52.05,46.914z M38.719,36.403v2.606l-0.045,25.063l-2.506,0.26l0.055-31.079l4.473,0.712
		c-0.415,0.087-0.803,0.281-1.128,0.565C39.029,35.002,38.719,35.686,38.719,36.403z M64.925,46.456
		c-0.012-0.051-0.026-0.101-0.042-0.151l1.348,0.124l-0.008,6.454c-0.453-0.693-1.229-1.129-2.089-1.129
		c-0.075,0-0.38,0.028-0.396,0.03c0,0-0.48,0.075-0.817,0.128c-0.45-0.533-0.95-1.014-1.489-1.436
		c0.906-0.615,1.77-0.994,2.047-1.111C64.607,48.889,65.23,47.636,64.925,46.456z M65.232,56.48
		c0.414-0.201,0.746-0.508,0.985-0.875l-0.005,3.619c-0.212-0.469-0.466-0.91-0.759-1.324c-0.058-0.478-0.142-0.949-0.249-1.405
		C65.217,56.491,65.225,56.484,65.232,56.48z"/>
	<path fill-opacity="0.07" d="M71.609,38.382l-1.332-0.174l0.008-7.441c0-0.941-0.67-1.763-1.59-1.953l-37.434-7.738L28.27,20.45
		c-0.137-0.029-0.277-0.044-0.417-0.044c-0.455,0-0.902,0.159-1.26,0.448c-0.466,0.38-0.734,0.943-0.734,1.546v3.499l-0.089,45.32
		v3.514c0,0.578,0.253,1.131,0.696,1.516c0.361,0.309,0.821,0.479,1.298,0.479c0.05,0,0.253-0.015,0.304-0.022l2.999-0.462
		l8.089-1.223v0.393c0,0.586,0.258,1.141,0.706,1.521c0.36,0.307,0.817,0.474,1.29,0.474c0.058,0,0.283-0.021,0.325-0.027
		l2.096-0.347l28.061-4.532c0.972-0.156,1.679-0.983,1.679-1.964l0.037-30.175C73.348,39.359,72.602,38.509,71.609,38.382z
		 M47.326,53.075c0.222,0.085,0.461,0.129,0.701,0.129c0.185,0,0.367-0.024,0.542-0.072c-0.06,0.073-0.118,0.147-0.177,0.224
		c-0.517,0.679-0.546,1.61-0.071,2.324c0.372,0.553,0.991,0.881,1.657,0.881c0.168,0,0.332-0.021,0.515-0.065
		c0.141-0.038,0.28-0.068,0.422-0.085c-0.804,3.132-1.229,6.65-1.304,10.718l-2.308,0.281L47.326,53.075z M47.332,48.963
		l0.008-4.775l4.99,0.459c0.172,0.973,0.242,1.909,0.214,2.836c-0.375-0.066-0.751-0.102-1.129-0.102
		C49.878,47.382,48.427,47.957,47.332,48.963z M61.423,65.641c0.036,0,0.179-0.01,0.222-0.014c0.787-0.088,1.42-0.619,1.664-1.33
		c0.336,0.256,0.756,0.404,1.205,0.404c0.041,0,0.209-0.014,0.264-0.02c1.027-0.137,1.771-1.023,1.729-2.063
		c-0.075-1.707-0.606-3.271-1.53-4.532c-0.068-0.632-0.186-1.252-0.348-1.85c0.128-0.07,0.258-0.139,0.387-0.203
		c0.879-0.434,1.318-1.467,1.017-2.4c-0.265-0.824-1.026-1.382-1.896-1.382c-0.06,0-0.291,0.021-0.32,0.024
		c0,0-0.902,0.14-1.098,0.174c-0.619-0.776-1.337-1.436-2.135-1.973c1.122-0.877,2.32-1.412,2.703-1.572
		c0.904-0.381,1.402-1.383,1.156-2.328c-0.082-0.328-0.244-0.619-0.459-0.856l2.744,0.253L66.707,65.04l-6.277,0.767
		c-0.013-0.152-0.021-0.305-0.027-0.453C60.704,65.536,61.055,65.641,61.423,65.641z M59.771,45.333
		c-0.776,0.115-1.59,0.299-2.424,0.64c-0.094-0.302-0.191-0.599-0.301-0.891L59.771,45.333z M39.218,36.403v2.607l-0.045,25.514
		l-3.504,0.357l0.057-32.213l27.256,4.339l-0.002,0.244l-19.402-2.542l-2.101-0.282c-0.044-0.006-0.22-0.018-0.264-0.018
		c-0.484,0-0.951,0.175-1.315,0.496C39.465,35.283,39.218,35.829,39.218,36.403z"/>
	<path fill-opacity="0.1" d="M71.547,38.876l-1.768-0.231l0.008-7.879c0-0.707-0.502-1.322-1.193-1.465L31.16,21.563l-2.995-0.628
		c-0.102-0.022-0.206-0.033-0.312-0.033c-0.341,0-0.676,0.119-0.945,0.335c-0.351,0.286-0.551,0.708-0.551,1.161v3.5l-0.089,45.32
		v3.515c0,0.435,0.189,0.848,0.522,1.135c0.27,0.232,0.615,0.359,0.973,0.359c0.038,0,0.19-0.012,0.227-0.017l3.001-0.463
		l8.663-1.31v0.972c0,0.438,0.192,0.854,0.528,1.141c0.271,0.229,0.614,0.354,0.968,0.354c0.042,0,0.21-0.014,0.243-0.021
		l2.099-0.347l28.062-4.53c0.728-0.119,1.258-0.738,1.258-1.475l0.037-30.174C72.85,39.609,72.289,38.972,71.547,38.876z
		 M48.027,52.705c0.276,0,0.545-0.074,0.772-0.214c0.303-0.185,0.621-0.275,0.944-0.275c0.12,0,0.241,0.013,0.362,0.037
		c-0.486,0.424-0.93,0.896-1.318,1.406c-0.389,0.508-0.41,1.205-0.055,1.741c0.279,0.414,0.744,0.66,1.244,0.66
		c0.123,0,0.248-0.016,0.385-0.05c0.318-0.085,0.641-0.128,0.957-0.128c0.084,0,0.168,0.002,0.25,0.008
		c-0.936,3.358-1.418,7.188-1.469,11.678l-3.298,0.404l0.025-15.867c0.039,0.05,0.081,0.1,0.126,0.146
		C47.235,52.541,47.626,52.705,48.027,52.705z M46.833,50.309l0.01-6.667l5.909,0.545c0.27,1.348,0.354,2.638,0.257,3.917
		c-0.524-0.147-1.058-0.221-1.594-0.221C49.557,47.882,47.852,48.787,46.833,50.309z M59.963,63.961
		c0.146,0.686,0.764,1.182,1.46,1.182c0.028,0,0.138-0.008,0.166-0.012c0.765-0.083,1.337-0.727,1.331-1.498
		c-0.005-0.447-0.029-0.885-0.078-1.312c0.082,0.223,0.153,0.466,0.215,0.726c0.16,0.681,0.758,1.154,1.457,1.154
		c0.032,0,0.163-0.011,0.197-0.015c0.771-0.102,1.329-0.767,1.296-1.545c-0.073-1.658-0.597-3.164-1.515-4.365
		c-0.073-0.784-0.227-1.545-0.452-2.269c0.246-0.153,0.499-0.295,0.753-0.419c0.661-0.324,0.989-1.102,0.764-1.801
		c-0.199-0.622-0.771-1.038-1.423-1.038c-0.042,0-0.211,0.015-0.241,0.021l-0.523,0.082c-0.281,0.043-0.567,0.086-0.86,0.14
		c-0.766-1.017-1.711-1.851-2.772-2.452c1.293-1.178,2.861-1.887,3.355-2.093c0.678-0.286,1.051-1.037,0.867-1.746
		c-0.166-0.665-0.762-1.129-1.447-1.129c-0.023,0-0.119,0.004-0.156,0.008c-0.265,0.027-0.533,0.049-0.811,0.071
		c-1.379,0.111-2.93,0.236-4.518,1.012c-0.2-0.747-0.449-1.466-0.739-2.152l10.938,1.01l-0.021,19.96l-7.233,0.883
		c-0.084-0.979-0.117-1.899-0.103-2.779C59.902,63.705,59.934,63.831,59.963,63.961z M39.716,36.403v2.608L39.67,64.973l-4.5,0.461
		l0.058-33.35l28.252,4.497l-0.002,1.238l-19.965-2.616l-2.103-0.282c-0.033-0.004-0.165-0.013-0.197-0.013
		c-0.363,0-0.713,0.131-0.987,0.372C39.901,35.563,39.716,35.974,39.716,36.403z M55.994,61.439
		c-0.105,0.459-0.204,0.933-0.289,1.416c-0.029-0.463-0.051-0.916-0.062-1.363C55.76,61.489,55.878,61.473,55.994,61.439z"/>
	<path fill-opacity="0.15" d="M71.482,39.37l-2.203-0.288l0.01-8.316c0-0.471-0.336-0.881-0.797-0.977l-37.435-7.738l-2.998-0.627
		c-0.067-0.015-0.136-0.022-0.206-0.022c-0.227,0-0.451,0.078-0.63,0.224c-0.233,0.19-0.367,0.472-0.367,0.773V25.9l-0.089,45.319
		v3.514c0,0.287,0.126,0.564,0.348,0.759c0.181,0.153,0.411,0.239,0.649,0.239c0.025,0,0.126-0.008,0.152-0.012l3.002-0.464
		l9.235-1.394v1.549c0,0.293,0.129,0.57,0.353,0.76c0.181,0.152,0.41,0.236,0.645,0.236c0.027,0,0.135-0.01,0.162-0.014l2.1-0.348
		l26.76-4.322l1.302-0.209c0.484-0.078,0.838-0.492,0.838-0.982l0.037-30.172C72.35,39.859,71.979,39.434,71.482,39.37z
		 M47.189,50.671c-0.252,0.394-0.202,0.899,0.124,1.234c0.186,0.192,0.446,0.303,0.714,0.303c0.183,0,0.362-0.05,0.517-0.144
		c0.382-0.23,0.785-0.348,1.2-0.348c0.453,0,0.912,0.141,1.334,0.399c-0.713,0.517-1.361,1.145-1.895,1.845
		c-0.259,0.339-0.274,0.805-0.037,1.16c0.188,0.277,0.496,0.441,0.83,0.441c0.084,0,0.168-0.011,0.256-0.032
		c0.363-0.099,0.729-0.146,1.086-0.146c0.293,0,0.586,0.03,0.888,0.095c-1.054,3.545-1.584,7.654-1.612,12.53l-4.291,0.524
		l0.042-25.44l6.821,0.628c0.004,0.026,0.009,0.054,0.014,0.081c0.375,1.714,0.463,3.346,0.266,4.972
		c-0.657-0.26-1.346-0.396-2.029-0.396C49.688,48.38,48.108,49.236,47.189,50.671z M59.492,61.623
		c0.365,0.463,0.725,1.169,0.956,2.232c0.099,0.455,0.509,0.787,0.975,0.787c0.021,0,0.095-0.004,0.111-0.007
		c0.509-0.057,0.891-0.485,0.888-0.999c-0.011-1.181-0.181-2.281-0.506-3.289c0.751,0.381,1.322,1.278,1.625,2.584
		c0.105,0.452,0.506,0.771,0.973,0.771c0.021,0,0.109-0.007,0.133-0.011c0.514-0.066,0.885-0.512,0.863-1.028
		c-0.07-1.611-0.589-3.058-1.501-4.198c-0.077-0.93-0.266-1.824-0.563-2.666c0.365-0.246,0.748-0.471,1.13-0.658
		c0.44-0.218,0.657-0.731,0.508-1.199c-0.133-0.414-0.515-0.691-0.948-0.691c-0.027,0-0.138,0.008-0.166,0.014l-0.527,0.084
		c-0.371,0.055-0.752,0.112-1.149,0.197c-0.885-1.268-2.065-2.264-3.396-2.873c1.412-1.521,3.383-2.425,4.002-2.684
		c0.451-0.19,0.701-0.692,0.578-1.165c-0.11-0.443-0.509-0.751-0.965-0.751c-0.017,0-0.086,0.003-0.104,0.004
		c-0.268,0.028-0.543,0.049-0.823,0.073c-1.399,0.112-2.981,0.239-4.558,1.075H57.02c-0.119,0-0.237,0.022-0.348,0.063
		c-0.285-1.193-0.691-2.327-1.197-3.35l12.25,1.13l-0.021,20.856l-8.18,0.999C59.328,64.98,59.318,63.234,59.492,61.623z
		 M55.165,58.923c0.008-0.176,0.019-0.349,0.028-0.521c0.119-0.041,0.236-0.063,0.355-0.063c0.053,0,0.104,0.005,0.156,0.011
		C55.514,58.53,55.333,58.721,55.165,58.923z M55.6,60.995c0.101,0,0.201-0.017,0.301-0.046c0.259-0.083,0.506-0.124,0.754-0.124
		h0.007c-0.515,1.944-0.82,4.103-0.937,6.559l-0.011,0.001c-0.366-2.361-0.562-4.516-0.583-6.506
		C55.273,60.954,55.434,60.995,55.6,60.995z M40.555,35.653c-0.216,0.19-0.34,0.463-0.34,0.75v2.609l-0.048,26.41l-5.497,0.562
		L34.73,31.5l29.249,4.655v2.23l-20.533-2.69l-2.102-0.282c-0.022-0.002-0.11-0.008-0.131-0.008
		C40.971,35.407,40.737,35.494,40.555,35.653z"/>
	<path fill-opacity="0.15" d="M71.417,39.865l-2.635-0.344l0.007-8.755c0-0.236-0.166-0.44-0.396-0.488l-37.438-7.739l-3-0.629
		c-0.034-0.007-0.068-0.01-0.102-0.01c-0.113,0-0.225,0.038-0.315,0.111c-0.116,0.095-0.184,0.238-0.184,0.388v3.502l-0.089,45.318
		v3.514c0,0.145,0.064,0.283,0.173,0.379c0.091,0.078,0.207,0.119,0.325,0.119c0.025,0,0.05-0.002,0.076-0.006l3.004-0.463
		l9.809-1.479v2.129c0,0.146,0.064,0.284,0.175,0.38c0.091,0.076,0.206,0.118,0.324,0.118c0.027,0,0.054-0.002,0.081-0.007
		l2.102-0.348l26.764-4.324l1.297-0.207c0.242-0.041,0.42-0.248,0.42-0.492l0.039-30.171C71.854,40.108,71.666,39.896,71.417,39.865
		z M40.883,36.029c-0.107,0.095-0.17,0.231-0.17,0.375v2.61l-0.048,26.858l-6.494,0.667l0.062-35.623l30.246,4.814l-0.002,3.225
		L43.38,36.19l-2.101-0.282c-0.021-0.002-0.044-0.004-0.066-0.004C41.092,35.905,40.975,35.949,40.883,36.029z M53.841,49.512
		c-0.766-0.416-1.592-0.633-2.426-0.633c-1.554,0-2.979,0.771-3.807,2.062c-0.125,0.194-0.098,0.451,0.063,0.615
		c0.096,0.103,0.227,0.152,0.356,0.152c0.089,0,0.179-0.023,0.258-0.07c0.461-0.279,0.953-0.421,1.459-0.421
		c0.777,0,1.552,0.334,2.186,0.935c-0.902,0.546-1.705,1.268-2.35,2.113c-0.13,0.168-0.137,0.401-0.02,0.577
		c0.096,0.14,0.252,0.222,0.416,0.222c0.043,0,0.086-0.004,0.127-0.017c0.405-0.108,0.813-0.162,1.215-0.162
		c0.496,0,0.994,0.081,1.516,0.246c-1.173,3.71-1.743,8.078-1.741,13.32l-5.289,0.646l0.043-26.55l7.92,0.73
		c-0.094,0.114-0.134,0.268-0.1,0.42C54.104,45.699,54.161,47.609,53.841,49.512z M58.135,54.889
		c-0.092-0.229-0.189-0.453-0.295-0.673c0.096,0.001,0.192,0.004,0.287,0.013C58.137,54.45,58.139,54.671,58.135,54.889z
		 M54.891,56.414c0.049-0.376,0.106-0.748,0.174-1.115c0.305,0.178,0.596,0.398,0.871,0.655
		C55.559,56.045,55.207,56.201,54.891,56.414z M54.718,58.079c0.267-0.158,0.546-0.237,0.832-0.237c0.377,0,0.753,0.141,1.081,0.395
		c-0.559,0.402-1.051,0.906-1.441,1.48c-0.123,0.176-0.117,0.407,0.011,0.577c0.095,0.131,0.243,0.202,0.399,0.202
		c0.049,0,0.101-0.01,0.151-0.023c0.308-0.099,0.603-0.146,0.901-0.146c0.211,0,0.425,0.022,0.644,0.071
		c-0.628,2.156-0.985,4.595-1.093,7.43l-0.905,0.109C54.689,64.205,54.497,60.992,54.718,58.079z M61.305,57.074
		c0.105-0.139,0.225-0.277,0.352-0.413c0.134,0.231,0.257,0.483,0.369,0.748C61.79,57.275,61.551,57.165,61.305,57.074z
		 M59.126,60.602c0.612,0.412,1.403,1.289,1.812,3.149c0.049,0.229,0.256,0.392,0.485,0.392c0.019,0,0.038,0,0.058-0.002
		c0.252-0.027,0.443-0.244,0.442-0.5c-0.013-1.478-0.284-2.816-0.807-3.994c1.393,0.033,2.45,1.187,2.909,3.172
		c0.054,0.229,0.258,0.387,0.486,0.387c0.022,0,0.045-0.002,0.066-0.005c0.256-0.034,0.441-0.259,0.434-0.517
		c-0.068-1.562-0.582-2.949-1.488-4.022c-0.073-1.077-0.303-2.103-0.681-3.045c0.476-0.351,0.993-0.668,1.511-0.923
		c0.222-0.108,0.33-0.364,0.254-0.602c-0.067-0.208-0.26-0.345-0.475-0.345c-0.027,0-0.057,0.003-0.084,0.008
		c-0.176,0.029-0.354,0.058-0.533,0.082c-0.47,0.07-0.949,0.144-1.449,0.271c-0.981-1.531-2.4-2.676-3.998-3.232
		c1.473-1.915,3.879-3.031,4.635-3.347c0.229-0.096,0.352-0.343,0.29-0.583c-0.058-0.222-0.257-0.375-0.481-0.375
		c-0.018,0-0.035,0.001-0.052,0.002c-0.272,0.028-0.552,0.051-0.837,0.074c-1.398,0.113-2.966,0.239-4.492,1.089
		c-0.037-0.007-0.074-0.012-0.111-0.012c-0.129,0-0.258,0.049-0.354,0.146c-0.092,0.093-0.159,0.196-0.213,0.277
		c-0.013,0.018-0.022,0.037-0.035,0.056c-0.019,0.011-0.035,0.023-0.051,0.036c-0.337-1.798-0.941-3.472-1.774-4.884l13.635,1.257
		L68.2,66.363l-9.119,1.113C58.786,64.905,58.802,62.646,59.126,60.602z"/>
	<path fill="#FFFFFF" d="M70.059,39.193l-1.774-0.233l0.008-6.651v-2.54l-1.628-0.335l-35.811-7.405l-3-0.627v3.503l-0.089,45.318
		v3.512l3.005-0.463l10.382-1.566v0.09v2.618l2.103-0.349L70.02,69.74l1.297-0.207l0.002-2.03l0.035-26.116v-2.026L70.059,39.193z
		 M41.212,35.407v2.61l-0.05,27.308l-7.492,0.768l0.064-36.758l31.243,4.974l-0.006,4.218l-21.659-2.838L41.212,35.407z
		 M54.643,53.844c0.088-0.072,0.199-0.115,0.291-0.176c0.711,0.335,1.422,0.891,2.047,1.706c-1.071-0.099-2.101,0.411-2.664,1.371
		c1.093-0.747,2.336-0.384,3.104,0.583c-0.729,0.41-1.356,0.994-1.821,1.673c0.842-0.271,1.594-0.198,2.319,0.065
		c-0.821,2.605-1.153,5.459-1.229,8.207l-1.806,0.221C54.156,63.21,53.749,58.48,54.643,53.844z M57.055,52.781
		c0.514-0.083,1.034-0.081,1.547,0.004c0.082,1.076,0.019,2.101-0.188,3.104c-0.064-0.044-0.135-0.068-0.199-0.106
		C57.958,54.714,57.572,53.708,57.055,52.781z M61.744,54.874c0.535,0.761,0.977,1.743,1.273,2.969
		c-0.711-0.784-1.598-1.298-2.515-1.474C60.822,55.824,61.256,55.322,61.744,54.874z M60.247,54.484
		c0.026-0.057,0.049-0.119,0.088-0.18c-0.067,0.075-0.119,0.172-0.179,0.258c-0.17,0.133-0.348,0.291-0.516,0.465
		c-0.104-0.768-0.271-1.471-0.484-2.11c0.66,0.202,1.292,0.562,1.861,1.104C60.759,54.148,60.501,54.296,60.247,54.484z
		 M68.697,65.809l-10.053,1.226c-0.326-2.558-0.43-5.289,0.07-7.99c0.059-0.044,0.131-0.08,0.197-0.122
		c1.012,0.438,2.041,1.564,2.51,3.729c-0.013-1.646-0.365-3.149-1.072-4.422c1.658-0.371,3.479,0.53,4.162,3.48
		c-0.07-1.633-0.654-2.927-1.477-3.846c-0.067-1.274-0.355-2.414-0.805-3.406c0.623-0.494,1.291-0.906,1.901-1.207
		c-0.715,0.12-1.5,0.197-2.295,0.441c-1.092-1.879-2.794-3.107-4.571-3.53c1.168-1.886,3.407-3.321,5.243-4.089
		c-1.718,0.178-3.735,0.127-5.612,1.394c0.047-0.081,0.072-0.161,0.121-0.242c-0.099,0.099-0.162,0.235-0.25,0.344
		c-0.256,0.179-0.516,0.36-0.758,0.608c-0.299-2.207-0.99-4.111-1.857-5.58c0.531,2.432,0.498,4.62,0.037,6.731
		c-2.211-1.61-4.91-1.066-6.164,0.887c1.662-1.002,3.542-0.385,4.695,1.071c-1.096,0.552-2.029,1.346-2.744,2.287
		c1.267-0.34,2.402-0.172,3.479,0.259c-1.481,4.423-1.896,9.42-1.864,14.065l-6.29,0.769l0.045-27.66l23.375,2.155L68.697,65.809z"
		/>
</g>
</svg>
