<?xml version="1.0" encoding="UTF-8" standalone="no"?>
<!DOCTYPE svg PUBLIC "-//W3C//DTD SVG 1.1 Tiny//EN" "http://www.w3.org/Graphics/SVG/1.1/DTD/svg11-tiny.dtd">
<svg xmlns="http://www.w3.org/2000/svg" xmlns:xlink="http://www.w3.org/1999/xlink" baseProfile="tiny" height="96px" version="1.1" viewBox="0 0 96 96" width="96px" x="0px" y="0px">
<g>
<rect fill="none" height="96" width="96"/>
</g>
<g>
<path d="M88.023,49c0,29.633-10.364,40-40,40c-29.635,0-40-10.367-40-40c0-29.634,10.366-40,40-40   C77.659,9,88.023,19.365,88.023,49z" fill-opacity="0.4" stroke-opacity="0.4"/>
</g>
<g>
<g>
<linearGradient gradientUnits="userSpaceOnUse" id="GRAY_5_1_" x1="47.9995" x2="47.9995" y1="8.0107" y2="87.9897">
<stop offset="0" style="stop-color:#DDDDDD"/>
<stop offset="0.0364" style="stop-color:#DDDDDD"/>
<stop offset="0.4616" style="stop-color:#BFBFC1"/>
<stop offset="1" style="stop-color:#949499"/>
</linearGradient>
<path d="M8,47.989c0,29.633,10.365,40,40,40    c29.637,0,40-10.367,40-40c0-28.985-9.926-39.53-38.091-39.979h-3.817C17.928,8.459,8,19.004,8,47.989z" fill="url(#GRAY_5_1_)" fill-rule="evenodd"/>
<linearGradient gradientUnits="userSpaceOnUse" id="HIGHLIGHT_GRA5_1_" x1="47.9995" x2="47.9995" y1="8" y2="88.0005">
<stop offset="0" style="stop-color:#FFFFFF"/>
<stop offset="0.0364" style="stop-color:#FFFFFF"/>
<stop offset="0.3366" style="stop-color:#E1E1E3"/>
<stop offset="0.9874" style="stop-color:#96969A"/>
<stop offset="1" style="stop-color:#949499"/>
</linearGradient>
<path d="M48,8C18.365,8,8,18.365,8,48    c0,29.633,10.365,40,40,40c29.637,0,40-10.367,40-40C88,18.365,77.637,8,48,8z M48,87.023C18.842,87.023,9,77.176,9,48    S18.842,8.977,48,8.977S87,18.824,87,48S77.158,87.023,48,87.023z" fill="url(#HIGHLIGHT_GRA5_1_)" fill-opacity="0.25" stroke-opacity="0.25"/>
</g>
<g display="none">
<linearGradient gradientUnits="userSpaceOnUse" id="GRAY_4_1_" x1="47.9995" x2="47.9995" y1="8.0107" y2="87.9897">
<stop offset="0" style="stop-color:#E0E0E0"/>
<stop offset="0.0364" style="stop-color:#E0E0E0"/>
<stop offset="0.3262" style="stop-color:#D6D6D6"/>
<stop offset="0.8148" style="stop-color:#BCBCBC"/>
<stop offset="1" style="stop-color:#B0B0B0"/>
</linearGradient>
<path d="M8,47.989    c0,29.633,10.365,40,40,40c29.637,0,40-10.367,40-40c0-28.985-9.926-39.53-38.091-39.979h-3.817C17.928,8.459,8,19.004,8,47.989z" display="inline" fill="url(#GRAY_4_1_)" fill-rule="evenodd"/>
<linearGradient gradientUnits="userSpaceOnUse" id="HIGHLIGHT_GRA4_2_" x1="47.9995" x2="47.9995" y1="8" y2="88.0005">
<stop offset="0" style="stop-color:#E8E8E8"/>
<stop offset="0.0364" style="stop-color:#E8E8E8"/>
<stop offset="0.2978" style="stop-color:#DEDEDE"/>
<stop offset="0.7385" style="stop-color:#C4C4C4"/>
<stop offset="1" style="stop-color:#B1B1B1"/>
</linearGradient>
<path d="M48,8C18.365,8,8,18.365,8,48    c0,29.633,10.365,40,40,40c29.637,0,40-10.367,40-40C88,18.365,77.637,8,48,8z M48,87.023C18.842,87.023,9,77.176,9,48    S18.842,8.977,48,8.977S87,18.824,87,48S77.158,87.023,48,87.023z" display="inline" fill="url(#HIGHLIGHT_GRA4_2_)"/>
</g>
<g display="none">
<linearGradient gradientUnits="userSpaceOnUse" id="GRAY_3_1_" x1="47.9995" x2="47.9995" y1="8.0107" y2="87.9897">
<stop offset="0" style="stop-color:#E9E9E9"/>
<stop offset="0.0364" style="stop-color:#E9E9E9"/>
<stop offset="0.3218" style="stop-color:#DFDFDF"/>
<stop offset="0.8028" style="stop-color:#C5C5C5"/>
<stop offset="1" style="stop-color:#B8B8B8"/>
</linearGradient>
<path d="M8,47.989    c0,29.633,10.365,40,40,40c29.637,0,40-10.367,40-40c0-28.985-9.926-39.53-38.091-39.979h-3.817C17.928,8.459,8,19.004,8,47.989z" display="inline" fill="url(#GRAY_3_1_)" fill-rule="evenodd"/>
<linearGradient gradientUnits="userSpaceOnUse" id="HIGHLIGHT_GRA3_2_" x1="47.9995" x2="47.9995" y1="8" y2="88.0005">
<stop offset="0" style="stop-color:#EFEFEF"/>
<stop offset="0.0364" style="stop-color:#EFEFEF"/>
<stop offset="0.3133" style="stop-color:#E5E5E5"/>
<stop offset="0.7799" style="stop-color:#CBCBCB"/>
<stop offset="1" style="stop-color:#BCBCBC"/>
</linearGradient>
<path d="M48,8C18.365,8,8,18.365,8,48    c0,29.633,10.365,40,40,40c29.637,0,40-10.367,40-40C88,18.365,77.637,8,48,8z M48,87.023C18.842,87.023,9,77.176,9,48    S18.842,8.977,48,8.977S87,18.824,87,48S77.158,87.023,48,87.023z" display="inline" fill="url(#HIGHLIGHT_GRA3_2_)"/>
</g>
<g display="none">
<linearGradient gradientUnits="userSpaceOnUse" id="GRAY_2_1_" x1="47.9995" x2="47.9995" y1="8.0107" y2="87.9897">
<stop offset="0" style="stop-color:#EEEEEE"/>
<stop offset="0.0364" style="stop-color:#EEEEEE"/>
<stop offset="0.3262" style="stop-color:#E4E4E4"/>
<stop offset="0.8148" style="stop-color:#CACACA"/>
<stop offset="1" style="stop-color:#BEBEBE"/>
</linearGradient>
<path d="M8,47.989    c0,29.633,10.365,40,40,40c29.637,0,40-10.367,40-40c0-28.985-9.926-39.53-38.091-39.979h-3.817C17.928,8.459,8,19.004,8,47.989z" display="inline" fill="url(#GRAY_2_1_)" fill-rule="evenodd"/>
<linearGradient gradientUnits="userSpaceOnUse" id="HIGHLIGHT_GRA2_1_" x1="47.9995" x2="47.9995" y1="8" y2="88.0005">
<stop offset="0" style="stop-color:#F2F2F2"/>
<stop offset="0.0364" style="stop-color:#F2F2F2"/>
<stop offset="0.3133" style="stop-color:#E8E8E8"/>
<stop offset="0.7799" style="stop-color:#CECECE"/>
<stop offset="1" style="stop-color:#BFBFBF"/>
</linearGradient>
<path d="M48,8C18.365,8,8,18.365,8,48    c0,29.633,10.365,40,40,40c29.637,0,40-10.367,40-40C88,18.365,77.637,8,48,8z M48,87.023C18.842,87.023,9,77.176,9,48    S18.842,8.977,48,8.977S87,18.824,87,48S77.158,87.023,48,87.023z" display="inline" fill="url(#HIGHLIGHT_GRA2_1_)"/>
</g>
<g display="none">
<linearGradient gradientUnits="userSpaceOnUse" id="GRAY_1_1_" x1="47.9995" x2="47.9995" y1="8.0107" y2="87.9897">
<stop offset="0" style="stop-color:#F9F9F9"/>
<stop offset="0.0364" style="stop-color:#F9F9F9"/>
<stop offset="0.2102" style="stop-color:#EFEFEF"/>
<stop offset="0.5042" style="stop-color:#D6D6D5"/>
<stop offset="0.8303" style="stop-color:#B2B2B0"/>
<stop offset="1" style="stop-color:#ABABA8"/>
</linearGradient>
<path d="M8,47.989    c0,29.633,10.365,40,40,40c29.637,0,40-10.367,40-40c0-28.985-9.926-39.53-38.091-39.979h-3.817C17.928,8.459,8,19.004,8,47.989z" display="inline" fill="url(#GRAY_1_1_)" fill-rule="evenodd"/>
<linearGradient gradientUnits="userSpaceOnUse" id="HIGHLIGHT_GRA1_1_" x1="47.9995" x2="47.9995" y1="8" y2="88.0005">
<stop offset="0" style="stop-color:#FCFCFC"/>
<stop offset="0.0364" style="stop-color:#FCFCFC"/>
<stop offset="0.2262" style="stop-color:#F3F3F2"/>
<stop offset="0.5471" style="stop-color:#DAD9D8"/>
<stop offset="0.9576" style="stop-color:#B2B0AD"/>
<stop offset="1" style="stop-color:#ADABA8"/>
</linearGradient>
<path d="M48,8C18.365,8,8,18.365,8,48    c0,29.633,10.365,40,40,40c29.637,0,40-10.367,40-40C88,18.365,77.637,8,48,8z M48,87.023C18.842,87.023,9,77.176,9,48    S18.842,8.977,48,8.977S87,18.824,87,48S77.158,87.023,48,87.023z" display="inline" fill="url(#HIGHLIGHT_GRA1_1_)"/>
</g>
</g>
<g>
<linearGradient gradientUnits="userSpaceOnUse" id="VIOLET_1_1_" x1="47.9995" x2="47.9995" y1="9.7622" y2="89.7412">
<stop offset="0" style="stop-color:#7CC040"/>
<stop offset="0.0364" style="stop-color:#7CC040"/>
<stop offset="0.2088" style="stop-color:#77B83D"/>
<stop offset="0.4751" style="stop-color:#69A236"/>
<stop offset="0.8004" style="stop-color:#527F2B"/>
<stop offset="1" style="stop-color:#426623"/>
</linearGradient>
<path d="M8,47.989c0,29.633,10.365,40,40,40c29.637,0,40-10.367,40-40   c0-28.985-9.926-39.53-38.091-39.979h-3.817C17.928,8.459,8,19.004,8,47.989z" fill="url(#VIOLET_1_1_)"/>
<linearGradient gradientUnits="userSpaceOnUse" id="HIGHLIGHT_VIO1_2_" x1="47.9995" x2="47.9995" y1="8.2554" y2="87.5043">
<stop offset="0" style="stop-color:#FFFFFF"/>
<stop offset="0.0364" style="stop-color:#FFFFFF"/>
<stop offset="1" style="stop-color:#4A1F8C"/>
</linearGradient>
<path d="M48,8C18.365,8,8,18.365,8,48   c0,29.632,10.365,40,40,40c29.637,0,40-10.367,40-40C88,18.365,77.637,8,48,8z M48,87.023C18.842,87.023,9,77.176,9,48   C9,18.824,18.842,8.977,48,8.977S87,18.824,87,48C87,77.176,77.158,87.023,48,87.023z" fill="url(#HIGHLIGHT_VIO1_2_)" fill-opacity="0.25" stroke-opacity="0.25"/>
<path d="M48.917,87.979c28.807-0.216,38.997-10.591,39.079-39.641C86.351,69.224,69.744,86.039,48.917,87.979z" fill-opacity="0.05" stroke-opacity="0.05"/>
<path d="M53.815,87.835c23.416-1.267,32.839-10.767,34.046-34.28C84.415,70.685,70.918,84.272,53.815,87.835z" fill-opacity="0.07" stroke-opacity="0.07"/>
<path d="M57.172,87.584c19.85-1.884,28.591-10.675,30.438-30.581C83.435,71.7,71.851,83.34,57.172,87.584z" fill-opacity="0.1" stroke-opacity="0.1"/>
<linearGradient gradientUnits="userSpaceOnUse" id="SVGID_1_" x1="68.1074" x2="68.1074" y1="48.6113" y2="88.8687">
<stop offset="0" style="stop-color:#3FA9F5"/>
<stop offset="0.0364" style="stop-color:#3FA9F5"/>
<stop offset="0.2062" style="stop-color:#3DA4ED"/>
<stop offset="0.4684" style="stop-color:#3898D7"/>
<stop offset="0.7886" style="stop-color:#3084B4"/>
<stop offset="1" style="stop-color:#297499"/>
</linearGradient>
<path d="M87.997,47.729h-0.044c0.001,0.091,0.007,0.18,0.007,0.271c0,21.996-17.776,39.838-39.745,39.954   v0.032C77.684,87.936,88,77.549,88,47.989C88,47.901,87.997,47.817,87.997,47.729z" fill="url(#SVGID_1_)"/>
</g>
<g>
<path d="M71.676,37.888l-0.899-0.118l0.007-7.004c0-1.176-0.837-2.203-1.987-2.442l-37.432-7.736l-2.99-0.627   c-0.171-0.037-0.347-0.056-0.521-0.056c-0.568,0-1.126,0.198-1.575,0.56c-0.583,0.475-0.917,1.18-0.917,1.933v3.498l-0.089,45.322   v3.514c0,0.723,0.316,1.41,0.871,1.894c0.451,0.387,1.027,0.599,1.622,0.599c0.063,0,0.316-0.019,0.38-0.029l2.998-0.463   l7.524-1.135c0.049,0.662,0.361,1.279,0.874,1.714c0.449,0.382,1.022,0.591,1.612,0.591c0.074,0,0.363-0.026,0.405-0.033   l2.094-0.348l28.063-4.531c1.212-0.196,2.095-1.229,2.095-2.456l0.038-30.175C73.847,39.109,72.912,38.047,71.676,37.888z    M49.978,57.06c0.087,0,0.177-0.004,0.269-0.016c-0.668,2.863-1.038,6.031-1.127,9.641l-1.317,0.16l0.019-11.026   c0.026,0.048,0.055,0.095,0.085,0.14C48.369,56.646,49.144,57.06,49.978,57.06z M52.05,46.914   c-0.211-0.019-0.423-0.029-0.635-0.029c-1.289,0-2.528,0.372-3.583,1.06l0.005-3.21l4.064,0.375   C51.993,45.724,52.043,46.32,52.05,46.914z M38.719,36.403v2.606l-0.045,25.063l-2.506,0.26l0.055-31.079l4.473,0.712   c-0.415,0.087-0.803,0.281-1.128,0.565C39.029,35.002,38.719,35.686,38.719,36.403z M64.925,46.456   c-0.012-0.051-0.026-0.101-0.042-0.151l1.347,0.124l-0.008,6.454c-0.452-0.694-1.229-1.129-2.088-1.129   c-0.076,0-0.38,0.028-0.396,0.03c0,0-0.48,0.075-0.817,0.128c-0.451-0.533-0.95-1.013-1.489-1.435   c0.906-0.615,1.769-0.995,2.047-1.112C64.608,48.889,65.23,47.636,64.925,46.456z M65.233,56.481   c0.414-0.202,0.746-0.509,0.985-0.876l-0.005,3.62c-0.212-0.469-0.466-0.91-0.759-1.324c-0.057-0.478-0.141-0.95-0.249-1.406   C65.217,56.491,65.225,56.485,65.233,56.481z" fill-opacity="0.05" stroke-opacity="0.05"/>
<path d="M71.61,38.382l-1.332-0.174l0.007-7.441c0-0.941-0.67-1.763-1.59-1.953l-37.434-7.738l-2.991-0.626   c-0.137-0.029-0.277-0.044-0.417-0.044c-0.455,0-0.902,0.159-1.26,0.448c-0.466,0.38-0.734,0.943-0.734,1.546v3.499L25.77,71.219   v3.514c0,0.578,0.253,1.13,0.696,1.515c0.361,0.309,0.821,0.479,1.298,0.479c0.05,0,0.253-0.015,0.304-0.023l2.999-0.462   l8.089-1.223v0.393c0,0.586,0.258,1.141,0.706,1.521c0.36,0.307,0.817,0.474,1.29,0.474c0.058,0,0.283-0.021,0.325-0.027   l2.096-0.347l28.061-4.532c0.971-0.156,1.678-0.983,1.678-1.964l0.037-30.175C73.348,39.359,72.601,38.509,71.61,38.382z    M47.326,53.075c0.222,0.085,0.461,0.129,0.701,0.129c0.185,0,0.367-0.025,0.542-0.072c-0.06,0.073-0.119,0.147-0.178,0.224   c-0.517,0.678-0.546,1.61-0.071,2.324c0.371,0.553,0.991,0.88,1.657,0.88c0.167,0,0.332-0.021,0.514-0.065   c0.141-0.038,0.281-0.068,0.422-0.085c-0.803,3.132-1.23,6.651-1.304,10.718l-2.307,0.281L47.326,53.075z M47.332,48.963   l0.008-4.775l4.99,0.459c0.172,0.973,0.242,1.909,0.214,2.836c-0.375-0.066-0.751-0.102-1.129-0.102   C49.878,47.382,48.427,47.957,47.332,48.963z M61.423,65.64c0.036,0,0.178-0.009,0.221-0.013c0.787-0.088,1.421-0.619,1.665-1.33   c0.336,0.256,0.755,0.404,1.204,0.404c0.042,0,0.21-0.013,0.265-0.02c1.027-0.136,1.771-1.023,1.729-2.063   c-0.076-1.707-0.606-3.271-1.531-4.532c-0.068-0.632-0.185-1.252-0.347-1.849c0.128-0.071,0.257-0.14,0.386-0.204   c0.88-0.433,1.319-1.466,1.017-2.4c-0.265-0.825-1.026-1.382-1.896-1.382c-0.059,0-0.291,0.02-0.32,0.025   c0,0-0.902,0.139-1.097,0.173c-0.62-0.776-1.337-1.436-2.135-1.972c1.122-0.878,2.321-1.413,2.703-1.573   c0.904-0.381,1.402-1.383,1.157-2.328c-0.082-0.328-0.245-0.619-0.46-0.856l2.745,0.253L66.707,65.04l-6.278,0.766   c-0.012-0.152-0.02-0.304-0.027-0.452C60.704,65.536,61.055,65.64,61.423,65.64z M59.772,45.333   c-0.777,0.115-1.591,0.299-2.425,0.64c-0.093-0.302-0.191-0.599-0.3-0.891L59.772,45.333z M39.218,36.403v2.607l-0.045,25.513   l-3.504,0.358l0.057-32.213l27.256,4.339l-0.001,0.244l-19.403-2.542l-2.101-0.282c-0.044-0.006-0.22-0.018-0.264-0.018   c-0.484,0-0.951,0.175-1.315,0.496C39.465,35.283,39.218,35.829,39.218,36.403z" fill-opacity="0.07" stroke-opacity="0.07"/>
<path d="M71.547,38.876l-1.768-0.231l0.008-7.879c0-0.707-0.502-1.322-1.193-1.465L31.16,21.563l-2.995-0.628   c-0.102-0.022-0.206-0.033-0.312-0.033c-0.341,0-0.676,0.119-0.945,0.335c-0.351,0.286-0.551,0.708-0.551,1.161v3.5l-0.089,45.32   v3.514c0,0.435,0.189,0.848,0.522,1.135c0.27,0.233,0.615,0.36,0.973,0.36c0.038,0,0.19-0.012,0.227-0.017l3.001-0.463l8.663-1.309   v0.971c0,0.439,0.192,0.854,0.528,1.141c0.271,0.229,0.614,0.354,0.968,0.354c0.042,0,0.21-0.014,0.243-0.021l2.099-0.347   l28.062-4.53c0.728-0.119,1.259-0.739,1.259-1.475l0.036-30.174C72.849,39.609,72.289,38.972,71.547,38.876z M48.027,52.705   c0.276,0,0.545-0.074,0.772-0.214c0.303-0.184,0.621-0.275,0.944-0.275c0.121,0,0.241,0.012,0.363,0.037   c-0.487,0.424-0.93,0.895-1.319,1.406c-0.389,0.508-0.41,1.205-0.055,1.742c0.28,0.414,0.744,0.66,1.244,0.66   c0.124,0,0.248-0.016,0.385-0.05c0.318-0.085,0.641-0.128,0.957-0.128c0.084,0,0.168,0.002,0.25,0.007   c-0.935,3.359-1.417,7.189-1.468,11.678l-3.298,0.404l0.025-15.867c0.039,0.05,0.081,0.1,0.126,0.147   C47.235,52.541,47.626,52.705,48.027,52.705z M46.833,50.308l0.01-6.667l5.909,0.545c0.269,1.348,0.354,2.638,0.257,3.917   c-0.524-0.147-1.058-0.221-1.594-0.221C49.556,47.882,47.852,48.787,46.833,50.308z M59.963,63.961   c0.146,0.685,0.763,1.181,1.46,1.181c0.028,0,0.137-0.007,0.166-0.011c0.764-0.083,1.337-0.727,1.331-1.498   c-0.005-0.447-0.029-0.885-0.078-1.312c0.082,0.222,0.153,0.465,0.215,0.725c0.16,0.68,0.758,1.154,1.456,1.154   c0.033,0,0.164-0.01,0.198-0.014c0.771-0.102,1.329-0.767,1.296-1.546c-0.073-1.658-0.597-3.164-1.515-4.365   c-0.073-0.784-0.227-1.544-0.452-2.268c0.246-0.153,0.499-0.295,0.753-0.419c0.661-0.325,0.989-1.101,0.764-1.801   c-0.199-0.622-0.771-1.038-1.423-1.038c-0.042,0-0.211,0.015-0.241,0.021l-0.524,0.082c-0.281,0.042-0.567,0.085-0.86,0.139   c-0.766-1.016-1.711-1.851-2.772-2.452c1.293-1.177,2.861-1.886,3.355-2.093c0.678-0.286,1.051-1.037,0.867-1.746   c-0.166-0.665-0.762-1.129-1.447-1.129c-0.024,0-0.12,0.004-0.157,0.008c-0.264,0.027-0.533,0.049-0.81,0.071   c-1.379,0.111-2.93,0.236-4.517,1.012c-0.201-0.747-0.45-1.466-0.74-2.152l10.939,1.01l-0.021,19.961l-7.233,0.882   c-0.084-0.978-0.117-1.899-0.103-2.779C59.903,63.705,59.934,63.831,59.963,63.961z M39.716,36.403v2.608l-0.046,25.962l-4.5,0.461   l0.058-33.35l28.253,4.497l-0.002,1.238l-19.966-2.616l-2.103-0.282c-0.033-0.004-0.165-0.013-0.197-0.013   c-0.363,0-0.713,0.131-0.987,0.372C39.901,35.563,39.716,35.974,39.716,36.403z M55.994,61.439   c-0.106,0.46-0.204,0.933-0.289,1.417c-0.029-0.463-0.051-0.917-0.063-1.364C55.76,61.489,55.878,61.473,55.994,61.439z" fill-opacity="0.1" stroke-opacity="0.1"/>
<path d="M71.482,39.37l-2.203-0.288l0.01-8.316c0-0.471-0.336-0.881-0.797-0.977l-37.435-7.738l-2.998-0.627   c-0.067-0.015-0.136-0.022-0.206-0.022c-0.227,0-0.451,0.078-0.63,0.224c-0.233,0.19-0.367,0.472-0.367,0.773V25.9l-0.089,45.319   v3.514c0,0.287,0.126,0.564,0.348,0.758c0.181,0.154,0.411,0.239,0.649,0.239c0.025,0,0.126-0.008,0.152-0.011l3.002-0.464   l9.235-1.394v1.549c0,0.293,0.129,0.57,0.353,0.76c0.181,0.152,0.41,0.236,0.645,0.236c0.027,0,0.135-0.009,0.162-0.014l2.1-0.347   l26.76-4.323l1.301-0.208c0.485-0.078,0.839-0.492,0.839-0.983l0.037-30.172C72.35,39.859,71.978,39.434,71.482,39.37z    M47.189,50.671c-0.252,0.393-0.202,0.899,0.124,1.234c0.186,0.192,0.446,0.303,0.714,0.303c0.183,0,0.362-0.05,0.517-0.144   c0.382-0.23,0.785-0.347,1.2-0.347c0.453,0,0.912,0.14,1.334,0.399c-0.713,0.517-1.361,1.145-1.895,1.845   c-0.258,0.339-0.274,0.804-0.037,1.16c0.188,0.278,0.496,0.441,0.831,0.441c0.083,0,0.167-0.01,0.256-0.032   c0.362-0.098,0.728-0.146,1.086-0.146c0.293,0,0.586,0.03,0.887,0.094c-1.054,3.546-1.584,7.655-1.612,12.531l-4.291,0.524   l0.042-25.44l6.821,0.628c0.004,0.026,0.009,0.054,0.014,0.081c0.374,1.714,0.463,3.346,0.265,4.972   c-0.657-0.26-1.346-0.396-2.029-0.396C49.688,48.38,48.108,49.237,47.189,50.671z M59.492,61.623   c0.365,0.463,0.725,1.169,0.956,2.232c0.099,0.456,0.509,0.788,0.975,0.788c0.02,0,0.094-0.005,0.111-0.007   c0.509-0.057,0.891-0.486,0.888-0.999c-0.011-1.181-0.181-2.281-0.506-3.29c0.751,0.382,1.322,1.279,1.625,2.584   c0.105,0.453,0.506,0.771,0.972,0.771c0.022,0,0.11-0.006,0.133-0.01c0.514-0.067,0.885-0.512,0.864-1.029   c-0.071-1.611-0.589-3.058-1.501-4.198c-0.078-0.93-0.266-1.825-0.563-2.666c0.365-0.246,0.748-0.471,1.129-0.659   c0.44-0.217,0.658-0.731,0.508-1.199c-0.133-0.414-0.514-0.691-0.948-0.691c-0.028,0-0.138,0.008-0.166,0.013l-0.527,0.084   c-0.372,0.055-0.752,0.113-1.15,0.198c-0.885-1.267-2.065-2.264-3.396-2.873c1.412-1.521,3.384-2.425,4.003-2.684   c0.45-0.19,0.7-0.692,0.578-1.165c-0.111-0.443-0.509-0.751-0.965-0.751c-0.017,0-0.086,0.003-0.104,0.004   c-0.268,0.028-0.543,0.049-0.823,0.073c-1.4,0.112-2.981,0.239-4.557,1.075h-0.009c-0.119,0-0.237,0.022-0.347,0.063   c-0.285-1.193-0.691-2.327-1.197-3.35l12.25,1.13l-0.022,20.856l-8.18,0.999C59.328,64.98,59.318,63.235,59.492,61.623z    M55.165,58.923c0.008-0.176,0.019-0.349,0.029-0.521c0.118-0.041,0.235-0.063,0.355-0.063c0.053,0,0.104,0.005,0.156,0.011   C55.514,58.53,55.333,58.721,55.165,58.923z M55.599,60.995c0.101,0,0.202-0.016,0.302-0.046c0.258-0.083,0.505-0.124,0.753-0.124   h0.007c-0.514,1.945-0.82,4.103-0.936,6.559l-0.011,0.001c-0.366-2.362-0.561-4.516-0.583-6.506   C55.273,60.954,55.434,60.995,55.599,60.995z M40.555,35.653c-0.216,0.19-0.34,0.463-0.34,0.75v2.609l-0.048,26.41l-5.497,0.563   l0.06-34.485l29.249,4.655l-0.001,2.231l-20.532-2.69l-2.102-0.282c-0.022-0.002-0.11-0.008-0.131-0.008   C40.971,35.407,40.737,35.494,40.555,35.653z" fill-opacity="0.15" stroke-opacity="0.15"/>
<path d="M71.417,39.865l-2.635-0.344l0.007-8.755c0-0.236-0.166-0.44-0.397-0.488l-37.437-7.739l-3-0.629   c-0.034-0.007-0.068-0.01-0.102-0.01c-0.113,0-0.225,0.038-0.315,0.111c-0.116,0.095-0.184,0.238-0.184,0.388v3.502l-0.089,45.318   v3.514c0,0.144,0.064,0.283,0.173,0.378c0.091,0.079,0.207,0.12,0.325,0.12c0.025,0,0.05-0.002,0.076-0.006l3.004-0.463l9.809-1.48   v2.129c0,0.146,0.064,0.285,0.175,0.38c0.091,0.076,0.206,0.118,0.324,0.118c0.027,0,0.054-0.002,0.081-0.006l2.102-0.348   l26.763-4.325l1.297-0.207c0.243-0.04,0.421-0.247,0.421-0.492l0.038-30.171C71.853,40.108,71.666,39.896,71.417,39.865z    M40.883,36.029c-0.107,0.095-0.17,0.231-0.17,0.375v2.61l-0.048,26.858l-6.494,0.667l0.062-35.623l30.246,4.814l-0.003,3.225   l-21.096-2.765l-2.101-0.282c-0.021-0.002-0.044-0.004-0.066-0.004C41.092,35.905,40.975,35.949,40.883,36.029z M53.841,49.512   c-0.766-0.416-1.592-0.633-2.426-0.633c-1.554,0-2.979,0.771-3.807,2.063c-0.125,0.194-0.098,0.45,0.063,0.615   c0.096,0.102,0.227,0.152,0.356,0.152c0.089,0,0.179-0.023,0.258-0.071c0.461-0.278,0.953-0.42,1.459-0.42   c0.778,0,1.552,0.334,2.186,0.934c-0.902,0.546-1.706,1.268-2.35,2.114c-0.13,0.168-0.137,0.401-0.019,0.577   c0.095,0.14,0.252,0.222,0.416,0.222c0.042,0,0.085-0.005,0.126-0.017c0.406-0.108,0.814-0.162,1.216-0.162   c0.496,0,0.994,0.081,1.515,0.246c-1.173,3.71-1.743,8.078-1.741,13.32l-5.289,0.646l0.043-26.55l7.92,0.73   c-0.093,0.114-0.133,0.268-0.099,0.42C54.104,45.699,54.161,47.609,53.841,49.512z M58.135,54.889   c-0.092-0.23-0.189-0.454-0.295-0.673c0.096,0.001,0.192,0.004,0.287,0.012C58.137,54.45,58.139,54.671,58.135,54.889z    M54.89,56.414c0.05-0.376,0.107-0.748,0.175-1.115c0.304,0.177,0.595,0.398,0.87,0.655C55.559,56.045,55.207,56.201,54.89,56.414z    M54.718,58.079c0.266-0.158,0.545-0.237,0.832-0.237c0.377,0,0.753,0.14,1.081,0.395c-0.559,0.402-1.051,0.905-1.442,1.48   c-0.122,0.175-0.117,0.407,0.011,0.577c0.095,0.131,0.244,0.202,0.399,0.202c0.05,0,0.101-0.009,0.152-0.023   c0.307-0.099,0.603-0.146,0.902-0.146c0.211,0,0.424,0.023,0.643,0.072c-0.628,2.155-0.985,4.594-1.093,7.429l-0.905,0.109   C54.689,64.205,54.497,60.992,54.718,58.079z M61.304,57.074c0.106-0.139,0.225-0.277,0.352-0.413   c0.134,0.232,0.257,0.483,0.37,0.748C61.79,57.275,61.551,57.165,61.304,57.074z M59.126,60.602   c0.613,0.411,1.404,1.288,1.812,3.149c0.049,0.23,0.255,0.392,0.485,0.392c0.019,0,0.038-0.001,0.057-0.003   c0.253-0.027,0.444-0.244,0.443-0.499c-0.013-1.478-0.284-2.817-0.807-3.995c1.393,0.033,2.451,1.187,2.909,3.172   c0.054,0.229,0.258,0.387,0.487,0.387c0.022,0,0.045-0.002,0.066-0.005c0.256-0.034,0.441-0.258,0.433-0.516   c-0.068-1.562-0.581-2.949-1.488-4.023c-0.073-1.077-0.302-2.102-0.68-3.045c0.476-0.351,0.993-0.668,1.51-0.922   c0.222-0.109,0.33-0.365,0.254-0.602c-0.067-0.208-0.26-0.345-0.474-0.345c-0.028,0-0.057,0.003-0.084,0.008   c-0.176,0.029-0.353,0.057-0.534,0.082c-0.469,0.07-0.949,0.144-1.448,0.27c-0.982-1.531-2.401-2.675-3.999-3.232   c1.473-1.915,3.879-3.031,4.635-3.347c0.229-0.096,0.352-0.343,0.29-0.583c-0.057-0.222-0.257-0.375-0.482-0.375   c-0.017,0-0.034,0.001-0.051,0.002c-0.273,0.028-0.552,0.051-0.837,0.074c-1.398,0.113-2.966,0.239-4.492,1.089   c-0.037-0.007-0.074-0.012-0.112-0.012c-0.129,0-0.257,0.049-0.354,0.146c-0.092,0.093-0.159,0.196-0.213,0.277   c-0.012,0.018-0.023,0.037-0.035,0.056c-0.018,0.011-0.035,0.023-0.051,0.036c-0.337-1.798-0.941-3.472-1.774-4.884l13.635,1.257   L68.2,66.363l-9.119,1.113C58.786,64.905,58.802,62.647,59.126,60.602z" fill-opacity="0.15" stroke-opacity="0.15"/>
<path d="M70.059,39.193l-1.775-0.233l0.008-6.651v-2.54l-1.628-0.335l-35.811-7.405l-3-0.627v3.503l-0.089,45.317   v3.513l3.005-0.463l10.382-1.567v0.09v2.618l2.103-0.348L70.02,69.74l1.296-0.207l0.003-2.03l0.035-26.116v-2.026L70.059,39.193z    M41.212,35.407v2.61l-0.05,27.308l-7.492,0.768l0.064-36.758l31.242,4.974l-0.005,4.218l-21.659-2.838L41.212,35.407z    M54.642,53.844c0.089-0.073,0.2-0.116,0.292-0.176c0.71,0.335,1.421,0.891,2.046,1.706c-1.071-0.099-2.1,0.411-2.663,1.371   c1.092-0.747,2.336-0.384,3.104,0.583c-0.729,0.41-1.357,0.994-1.821,1.673c0.841-0.27,1.594-0.198,2.319,0.066   c-0.822,2.605-1.153,5.458-1.23,8.206l-1.805,0.221C54.156,63.21,53.749,58.481,54.642,53.844z M57.055,52.781   c0.513-0.083,1.034-0.081,1.546,0.004c0.082,1.077,0.019,2.101-0.187,3.104c-0.065-0.044-0.134-0.069-0.199-0.107   C57.958,54.714,57.572,53.708,57.055,52.781z M61.744,54.874c0.536,0.761,0.977,1.743,1.274,2.969   c-0.712-0.785-1.598-1.298-2.515-1.474C60.822,55.824,61.256,55.322,61.744,54.874z M60.247,54.485   c0.027-0.057,0.049-0.12,0.088-0.181c-0.068,0.076-0.119,0.173-0.179,0.259c-0.169,0.133-0.347,0.29-0.515,0.465   c-0.105-0.768-0.272-1.472-0.485-2.111c0.66,0.202,1.292,0.562,1.862,1.104C60.759,54.149,60.501,54.296,60.247,54.485z    M68.697,65.808l-10.052,1.226c-0.327-2.558-0.43-5.289,0.07-7.99c0.058-0.044,0.131-0.08,0.197-0.122   c1.012,0.438,2.041,1.565,2.51,3.729c-0.013-1.647-0.365-3.15-1.073-4.422c1.659-0.372,3.479,0.53,4.163,3.48   c-0.071-1.633-0.654-2.927-1.477-3.846c-0.067-1.274-0.355-2.414-0.804-3.406c0.622-0.494,1.29-0.906,1.901-1.207   c-0.715,0.12-1.5,0.197-2.295,0.442c-1.092-1.879-2.794-3.108-4.572-3.531c1.169-1.886,3.408-3.321,5.244-4.089   c-1.718,0.178-3.736,0.127-5.613,1.394c0.048-0.081,0.073-0.161,0.121-0.242c-0.098,0.099-0.162,0.235-0.25,0.344   c-0.256,0.179-0.515,0.36-0.757,0.608c-0.299-2.207-0.99-4.111-1.857-5.58c0.53,2.432,0.497,4.62,0.037,6.731   c-2.211-1.61-4.911-1.066-6.164,0.887c1.661-1.002,3.543-0.385,4.694,1.071c-1.095,0.552-2.028,1.346-2.744,2.287   c1.267-0.339,2.403-0.172,3.48,0.259c-1.481,4.423-1.895,9.42-1.864,14.065l-6.29,0.769l0.045-27.66l23.376,2.155L68.697,65.808z" fill="#FFFFFF"/>
</g>
</svg>
